<svg width="119" height="119" viewBox="0 0 119 119" fill="none" xmlns="http://www.w3.org/2000/svg">
<path d="M109.843 61.1588L119 61.9011L118.629 66.4651C118.587 66.98 118.441 67.404 118.189 67.737C117.95 68.071 117.653 68.312 117.299 68.46C116.944 68.6196 116.573 68.6838 116.187 68.6525C115.694 68.6126 115.259 68.4594 114.879 68.1931C114.512 67.9277 114.246 67.5646 114.083 67.1037C113.888 67.618 113.578 68.0228 113.153 68.3182C112.728 68.6136 112.234 68.7384 111.672 68.6928C111.18 68.6529 110.762 68.4954 110.419 68.2202C110.074 67.9567 109.82 67.6062 109.655 67.1688C109.489 66.7431 109.428 66.261 109.472 65.7227L109.843 61.1588ZM110.611 62.3696L110.336 65.7574C110.311 66.0617 110.365 66.3429 110.497 66.601C110.64 66.8717 110.835 67.0878 111.081 67.2491C111.327 67.4221 111.59 67.5201 111.871 67.5429C112.176 67.5676 112.457 67.5197 112.715 67.3992C112.984 67.2796 113.204 67.109 113.375 66.8873C113.547 66.6656 113.645 66.4026 113.67 66.0984L113.951 62.6403L110.611 62.3696ZM114.777 62.7073L114.524 65.8143C114.499 66.1185 114.56 66.3944 114.705 66.6417C114.85 66.8891 115.046 67.0875 115.293 67.2372C115.54 67.3868 115.805 67.473 116.086 67.4958C116.508 67.53 116.888 67.4195 117.228 67.1643C117.566 66.9208 117.753 66.5825 117.788 66.1495L118.046 62.9723L114.777 62.7073Z" fill="#ECECEC"/>
<path d="M108.498 71.487L117.248 74.2865L116.882 75.4269L113.792 74.4383L113.157 76.4173C112.838 77.4125 112.34 78.0792 111.663 78.4176C110.995 78.7707 110.246 78.8147 109.418 78.5497C108.88 78.3777 108.429 78.1101 108.064 77.7467C107.699 77.3834 107.458 76.9425 107.34 76.4241C107.219 75.9168 107.263 75.3389 107.471 74.6904L108.498 71.487ZM109.039 72.9176L108.426 74.8296C108.279 75.288 108.25 75.6857 108.339 76.0225C108.44 76.3629 108.614 76.6468 108.862 76.8741C109.122 77.105 109.425 77.276 109.772 77.387C110.108 77.4945 110.435 77.5315 110.755 77.4981C111.082 77.4794 111.376 77.3516 111.637 77.1146C111.906 76.8924 112.121 76.5297 112.282 76.0265L112.885 74.1481L109.039 72.9176ZM106.018 79.2188L114.751 82.0129L114.385 83.1533L105.652 80.3593L106.018 79.2188Z" fill="#ECECEC"/>
<path d="M102.404 81.7429L105.124 83.4437L105.04 83.578C104.897 83.8069 104.836 84.0595 104.856 84.3358C104.877 84.6121 105.016 84.9339 105.271 85.3013C105.526 85.6686 105.929 86.087 106.481 86.5566C107.043 87.0325 107.783 87.5781 108.701 88.1936L110.821 89.6232L107.649 94.6837L100.773 90.3851L100.118 91.43L97.398 89.7293L97.9688 88.8187L99.7774 89.9494L103.651 83.7693L101.843 82.6386L102.404 81.7429ZM104.076 85.1156L101.41 89.37L107.374 93.0986L109.339 89.9637L108.021 89.0779C107.113 88.4687 106.377 87.9181 105.811 87.4261C105.25 86.9503 104.831 86.5225 104.556 86.1427C104.285 85.7791 104.125 85.4367 104.076 85.1156Z" fill="#ECECEC"/>
<path d="M94.241 95.6142C94.7048 95.1476 95.2231 94.8012 95.7959 94.5749C96.377 94.357 96.9669 94.2552 97.5655 94.2696C98.1724 94.2924 98.7631 94.423 99.3376 94.6617C99.9037 94.9087 100.42 95.2638 100.888 95.7271C101.497 96.3309 101.919 97.0226 102.155 97.8022C102.382 98.59 102.401 99.3787 102.213 100.168C102.033 100.966 101.633 101.677 101.011 102.302C100.374 102.944 99.6643 103.349 98.8835 103.518C98.0944 103.695 97.3087 103.669 96.5264 103.439C95.7525 103.218 95.0652 102.809 94.4645 102.214C94.3978 102.147 94.331 102.081 94.2643 102.015C94.2059 101.957 94.1641 101.908 94.139 101.866L99.6802 96.2919C99.1715 95.8703 98.626 95.5858 98.0435 95.4385C97.4612 95.3078 96.8876 95.3099 96.3228 95.4448C95.758 95.5963 95.2686 95.8803 94.8545 96.2969C94.432 96.7219 94.1429 97.2293 93.9871 97.8194C93.8231 98.4177 93.8417 98.9656 94.043 99.463L93.1097 100.002C92.9336 99.5625 92.857 99.0812 92.88 98.5581C92.9031 98.035 93.03 97.5156 93.2609 97.0001C93.4919 96.5011 93.8186 96.0391 94.241 95.6142ZM100.318 96.8748L95.535 101.687C96.0436 102.125 96.5892 102.409 97.1716 102.54C97.7457 102.679 98.3109 102.669 98.8673 102.509C99.4238 102.366 99.9132 102.082 100.336 101.657C100.758 101.232 101.039 100.741 101.178 100.184C101.326 99.6358 101.328 99.0671 101.184 98.4782C101.041 97.9058 100.752 97.3714 100.318 96.8748Z" fill="#ECECEC"/>
<path d="M89.468 99.9454L90.0549 100.867C89.7871 101.037 89.5932 101.257 89.4733 101.528C89.3596 101.809 89.3339 102.174 89.3961 102.621C89.4483 103.075 89.6174 103.636 89.9032 104.303C90.1953 104.98 90.6262 105.799 91.196 106.759L92.4794 108.97L87.4505 112.165L82.5185 104.424L83.5302 103.781L87.8848 110.616L91.0092 108.631L90.187 107.274C89.5451 106.179 89.0582 105.229 88.7265 104.424C88.401 103.629 88.2248 102.948 88.1978 102.381C88.1609 101.82 88.2542 101.343 88.4779 100.95C88.7015 100.558 89.0315 100.223 89.468 99.9454Z" fill="#ECECEC"/>
<path d="M79.1092 105.852L82.2014 114.474L81.0725 114.878L78.5274 107.782L75.8157 116.777L74.8029 117.139L71.7049 108.501L72.8338 108.097L75.3372 115.077L78.0135 106.244L79.1092 105.852Z" fill="#ECECEC"/>
<path d="M65.7849 109.331L66.8136 117.367L70.0672 116.952L70.2036 118.017L62.507 119L62.3706 117.934L65.6242 117.519L64.5954 109.483L65.7849 109.331Z" fill="#ECECEC"/>
<path d="M58.5393 109.749L57.9725 118.907L56.7756 118.833L56.9758 115.599L54.5997 115.452C53.5553 115.387 52.7858 115.069 52.2912 114.498C51.7841 113.937 51.5573 113.223 51.611 112.356C51.6458 111.793 51.7947 111.291 52.0577 110.848C52.3206 110.406 52.6893 110.064 53.1636 109.823C53.6261 109.581 54.1977 109.481 54.8783 109.523L58.5393 109.749ZM57.2837 110.624L54.9779 110.482C54.4969 110.452 54.1038 110.522 53.7989 110.691C53.4932 110.872 53.2605 111.111 53.1009 111.407C52.9405 111.715 52.849 112.05 52.8266 112.413C52.8048 112.765 52.8494 113.091 52.9603 113.392C53.0588 113.704 53.2552 113.957 53.5494 114.152C53.8311 114.357 54.236 114.477 54.764 114.509L57.0345 114.649L57.2837 110.624Z" fill="#ECECEC"/>
<path d="M31.3624 101.164L25.8231 108.484L19.9282 104.035L25.4675 96.7145L26.4242 97.4366L21.5335 103.9L25.515 106.905L30.4057 100.441L31.3624 101.164Z" fill="#ECECEC"/>
<path d="M20.0064 90.2605C20.4955 90.8469 20.7821 91.5024 20.8662 92.227C20.9428 92.9426 20.8681 93.6235 20.6422 94.2699L24.9917 90.6517L25.7591 91.5719L15.8136 99.8452L15.1251 99.0198L16.4937 97.8813C15.8178 97.9699 15.1487 97.8923 14.4865 97.6486C13.8152 97.4125 13.2576 97.0282 12.8137 96.496C12.4074 96.0088 12.1388 95.4759 12.008 94.8971C11.8681 94.3258 11.8457 93.7485 11.9406 93.1653C12.0356 92.582 12.2367 92.0251 12.5438 91.4945C12.8345 90.9624 13.2147 90.501 13.6844 90.1103C14.3438 89.5617 15.0664 89.1898 15.8522 88.9946C16.6214 88.7978 17.3725 88.7995 18.1055 88.9996C18.8385 89.1997 19.4722 89.62 20.0064 90.2605ZM19.4078 91.1939C19.0843 90.806 18.7178 90.5225 18.3084 90.3436C17.89 90.1721 17.455 90.0908 17.0035 90.0997C16.5444 90.0996 16.0988 90.18 15.6667 90.3407C15.2257 90.509 14.8245 90.7434 14.4631 91.044C14.0837 91.3596 13.7788 91.7278 13.5485 92.1487C13.3105 92.5605 13.1622 92.9972 13.1034 93.4587C13.0445 93.9202 13.07 94.3727 13.1798 94.8162C13.2896 95.2596 13.4987 95.6663 13.8072 96.0362C14.0029 96.2708 14.2512 96.4768 14.5522 96.6542C14.8532 96.8317 15.1873 96.9663 15.5546 97.0581C15.9053 97.1483 16.2485 97.1837 16.5842 97.1643C16.9198 97.1448 17.2201 97.0554 17.4851 96.8961L19.6531 95.0927C19.8669 94.6703 20.0077 94.2246 20.0756 93.7556C20.1344 93.2941 20.1134 92.8379 20.0127 92.3869C19.8954 91.9344 19.6938 91.5367 19.4078 91.1939Z" fill="#ECECEC"/>
<path d="M15.7708 84.3595L7.55277 88.4227L7.02074 87.3494L13.7848 84.0051L4.52475 82.3539L4.04748 81.3912L12.2813 77.3202L12.8133 78.3935L6.1599 81.6831L15.2544 83.3178L15.7708 84.3595Z" fill="#ECECEC"/>
<path d="M11.2897 73.7952L2.36125 75.9588L1.28009 71.509C1.15811 71.007 1.16408 70.5585 1.29798 70.1636C1.42046 69.7715 1.62657 69.4497 1.91631 69.1982C2.20327 68.9354 2.53527 68.7583 2.91228 68.6669C3.39213 68.5506 3.85399 68.5595 4.29788 68.6936C4.73034 68.8304 5.09636 69.0921 5.39592 69.4786C5.4197 68.9292 5.587 68.4477 5.89782 68.0341C6.20864 67.6204 6.63825 67.3472 7.18664 67.2143C7.66648 67.098 8.11259 67.1168 8.52498 67.2706C8.93459 67.4129 9.28641 67.666 9.58043 68.0296C9.87168 68.3819 10.0811 68.8205 10.2086 69.3453L11.2897 73.7952ZM10.1797 72.8862L9.37718 69.5831C9.3051 69.2864 9.1657 69.0363 8.95896 68.8327C8.73802 68.6204 8.48525 68.4763 8.20063 68.4003C7.91325 68.3128 7.63246 68.3024 7.35826 68.3688C7.06122 68.4408 6.80937 68.5743 6.60271 68.7694C6.38463 68.9672 6.22905 69.1982 6.13598 69.4624C6.0429 69.7266 6.0324 70.007 6.10447 70.3037L6.92366 73.6753L10.1797 72.8862ZM6.11821 73.8705L5.38219 70.8411C5.31011 70.5445 5.16638 70.3014 4.95099 70.112C4.73559 69.9226 4.48698 69.7955 4.20514 69.7309C3.9233 69.6663 3.64528 69.6673 3.37108 69.7337C2.95979 69.8334 2.63318 70.0575 2.39124 70.4061C2.14653 70.7433 2.07546 71.1229 2.17803 71.5451L2.93069 74.6429L6.11821 73.8705Z" fill="#ECECEC"/>
<path d="M9.46054 64.5065L8.3676 64.536C8.35903 64.2191 8.26914 63.9396 8.09794 63.6976C7.91499 63.4559 7.61532 63.2467 7.19891 63.07C6.78219 62.8816 6.21381 62.7384 5.49375 62.6403C4.76195 62.5426 3.83735 62.4912 2.71995 62.4862L0.161021 62.4495L0 56.499L9.18423 56.2512L9.21663 57.4483L1.10771 57.6671L1.20775 61.3642L2.79523 61.3566C4.06572 61.3693 5.13198 61.4403 5.99401 61.5698C6.84429 61.6995 7.52003 61.8986 8.02124 62.1669C8.52213 62.4235 8.88374 62.7485 9.10608 63.1419C9.32841 63.5352 9.44657 63.9901 9.46054 64.5065Z" fill="#ECECEC"/>
<path d="M10.6474 48.6251C10.5191 49.27 10.2789 49.8448 9.92679 50.3496C9.56314 50.852 9.12791 51.2624 8.62108 51.5808C8.10273 51.8969 7.53813 52.1141 6.92729 52.2323C6.31875 52.339 5.69161 52.3283 5.04587 52.2002C4.20411 52.0332 3.46934 51.6899 2.84154 51.1703C2.21604 50.6392 1.76331 49.9927 1.48336 49.2309C1.19187 48.4668 1.13203 47.653 1.30385 46.7893C1.48024 45.9025 1.84705 45.1733 2.40428 44.6015C2.96379 44.0183 3.63304 43.6064 4.41203 43.3659C5.17949 43.1232 5.97833 43.0842 6.80857 43.2489C6.90081 43.2672 6.99306 43.2855 7.08531 43.3038C7.16603 43.3198 7.2283 43.3382 7.27213 43.3588L5.73956 51.063C6.39675 51.1335 7.00881 51.0694 7.57573 50.8707C8.13342 50.6581 8.61027 50.3397 9.00629 49.9155C9.39307 49.4776 9.64373 48.9707 9.75828 48.3949C9.87511 47.8076 9.83517 47.2251 9.63845 46.6474C9.44402 46.0581 9.12528 45.6118 8.68221 45.3085L9.16169 44.3442C9.55169 44.6131 9.88185 44.9719 10.1522 45.4206C10.4225 45.8692 10.6041 46.3721 10.6971 46.9292C10.7808 47.4725 10.7642 48.0378 10.6474 48.6251ZM4.88516 50.9294L6.20812 44.2789C5.54169 44.1946 4.92963 44.2587 4.37195 44.4712C3.81655 44.6723 3.35123 44.9929 2.97598 45.4332C2.59149 45.8597 2.34083 46.3666 2.224 46.9539C2.10716 47.5412 2.14478 48.1053 2.33684 48.6461C2.51736 49.1847 2.83038 49.6598 3.27589 50.0714C3.71216 50.4692 4.24859 50.7552 4.88516 50.9294Z" fill="#ECECEC"/>
<path d="M14.6936 36.6807L11.1757 35.1325C11.1854 35.5473 11.1503 35.9617 11.0704 36.3756C10.9798 36.7848 10.8397 37.2043 10.65 37.6341C10.2423 38.558 9.6975 39.1522 9.01554 39.4167C8.33833 39.6703 7.51024 39.5817 6.53125 39.1509L4.04613 38.0572L4.52969 36.9613L6.86958 37.9911C7.62264 38.3225 8.23768 38.4136 8.71468 38.2642C9.19642 38.1042 9.58663 37.6857 9.8853 37.0088C10.0512 36.6328 10.1741 36.2378 10.254 35.8239C10.3338 35.41 10.356 35.054 10.3204 34.7561L6.28616 32.9806L6.76972 31.8848L15.1772 35.5848L14.6936 36.6807Z" fill="#ECECEC"/>
<path d="M17.0359 32.6427L9.50856 27.3817L10.1961 26.4005L12.8545 28.2586L14.2195 26.3107C14.8195 25.4545 15.4926 24.9649 16.239 24.8417C16.9825 24.7021 17.7107 24.8814 18.4234 25.3796C18.8858 25.7027 19.2374 26.0918 19.4782 26.5467C19.719 27.0016 19.8187 27.4941 19.7774 28.0241C19.7428 28.5445 19.53 29.0836 19.139 29.6415L17.0359 32.6427ZM16.9433 31.1163L18.2678 29.2261C18.5442 28.8317 18.6896 28.4604 18.704 28.1122C18.7088 27.7573 18.6264 27.4346 18.4569 27.1441C18.2777 26.8469 18.0388 26.594 17.7402 26.3853C17.4513 26.1833 17.1493 26.0511 16.8344 25.9886C16.5165 25.9098 16.1977 25.9449 15.878 26.0941C15.5554 26.2268 15.2424 26.5097 14.939 26.9425L13.6347 28.8039L16.9433 31.1163Z" fill="#ECECEC"/>
<path d="M36.9609 18.993C36.7835 19.0849 36.5846 19.1482 36.3643 19.1829C36.1598 19.2226 35.9366 19.239 35.6946 19.232L35.6964 18.2789C35.8437 18.282 35.9751 18.2801 36.0907 18.2731C36.2167 18.2608 36.3372 18.2249 36.452 18.1655C36.7233 18.025 36.9087 17.7571 37.0081 17.3618C37.1075 16.9665 37.1315 16.4516 37.0802 15.8169L36.9598 14.5899L29.1319 8.38649L30.2591 7.80295L36.9095 13.3066L36.005 4.8285L37.0696 4.27738L38.0804 15.7157C38.126 16.3137 38.1151 16.8285 38.0478 17.26C37.9804 17.6916 37.8542 18.0479 37.669 18.3289C37.4892 18.6204 37.2532 18.8417 36.9609 18.993Z" fill="#ECECEC"/>
<path d="M42.9174 14.2311L42.0662 11.1406L42.2192 11.0986C42.4799 11.027 42.6961 10.8823 42.8679 10.6647C43.0396 10.447 43.1559 10.1167 43.2168 9.67382C43.2777 9.23089 43.2641 8.65014 43.1759 7.93156C43.0846 7.20167 42.9094 6.29999 42.6503 5.22652L42.0571 2.74095L47.8212 1.15753L49.9726 8.96867L51.1628 8.64171L52.014 11.7322L50.9768 12.0171L50.4109 9.96246L43.3717 11.8962L43.9376 13.9509L42.9174 14.2311ZM43.9705 10.6175L48.8164 9.28629L46.9503 2.51097L43.3796 3.49186L43.7495 5.03414C44.0055 6.09628 44.175 6.99952 44.2581 7.74385C44.3494 8.47375 44.3677 9.07148 44.3131 9.53705C44.2666 9.98818 44.1524 10.3483 43.9705 10.6175Z" fill="#ECECEC"/>
<path d="M58.437 9.50584C57.7793 9.53374 57.1632 9.43648 56.589 9.21406C56.0142 8.97991 55.512 8.65454 55.0825 8.23796C54.6524 7.80964 54.3077 7.31307 54.0483 6.74825C53.8007 6.18292 53.6629 5.57181 53.635 4.91491C53.5986 4.05859 53.759 3.26444 54.1161 2.53244C54.4851 1.79995 55.007 1.20785 55.6821 0.75616C56.3566 0.292739 57.1344 0.0423428 58.0153 0.004973C58.9197 -0.0333933 59.7159 0.150235 60.4039 0.555858C61.1036 0.960983 61.6625 1.5131 62.0805 2.21221C62.4981 2.89959 62.7248 3.66558 62.7607 4.51016C62.7647 4.60401 62.7687 4.69785 62.7727 4.79169C62.7762 4.87381 62.773 4.93857 62.7633 4.98599L54.9054 5.31933C54.9921 5.97374 55.1991 6.55254 55.5264 7.05572C55.865 7.54667 56.2874 7.93418 56.7937 8.21824C57.3113 8.49008 57.8637 8.61354 58.451 8.58863C59.05 8.56322 59.6073 8.3868 60.1229 8.05939C60.6502 7.73148 61.0091 7.3167 61.1996 6.81506L62.2511 7.05249C62.0816 7.49449 61.8105 7.89966 61.4379 8.26802C61.0653 8.63637 60.6189 8.93147 60.0988 9.15331C59.59 9.36292 59.0361 9.48043 58.437 9.50584ZM54.8335 4.45864L61.6167 4.1709C61.5412 3.50426 61.3342 2.92546 60.9956 2.43451C60.6688 1.94305 60.2469 1.56728 59.7298 1.30717C59.224 1.03484 58.6716 0.91138 58.0726 0.936791C57.4735 0.962203 56.9336 1.132 56.4527 1.44619C55.9714 1.74864 55.5831 2.16467 55.288 2.69426C55.004 3.21162 54.8525 3.79975 54.8335 4.45864Z" fill="#ECECEC"/>
<path d="M70.742 10.7328C69.9919 10.587 69.3551 10.2598 68.8314 9.7513C68.3193 9.24502 67.9463 8.67012 67.7124 8.02658L66.6306 13.5756L65.4536 13.3468L67.9273 0.65824L68.9831 0.863551L68.6427 2.60952C69.1106 2.11438 69.6782 1.75228 70.3457 1.52322C71.0154 1.28264 71.6907 1.22854 72.3715 1.36093C72.9946 1.48209 73.54 1.7257 74.0076 2.09173C74.4775 2.44625 74.8601 2.87949 75.1556 3.39147C75.451 3.90345 75.6475 4.46199 75.7451 5.06708C75.8565 5.66289 75.8538 6.26044 75.737 6.85971C75.573 7.70101 75.2482 8.44526 74.7627 9.09246C74.291 9.73039 73.7078 10.2031 73.0131 10.5106C72.3184 10.8181 71.5613 10.8922 70.742 10.7328ZM70.6153 9.63168C71.1116 9.72817 71.5749 9.7166 72.0055 9.59697C72.4383 9.46582 72.8268 9.2543 73.1712 8.96241C73.5271 8.67277 73.8216 8.32933 74.0548 7.93209C74.2901 7.52333 74.4528 7.08846 74.5426 6.62748C74.637 6.14344 74.6403 5.66563 74.5526 5.19404C74.4764 4.7247 74.3151 4.29262 74.0687 3.89783C73.8223 3.50303 73.5163 3.16841 73.1506 2.89396C72.7849 2.61951 72.3655 2.43628 71.8923 2.34428C71.5923 2.28594 71.2695 2.28298 70.9239 2.3354C70.5784 2.38782 70.2342 2.49434 69.8915 2.65497C69.5625 2.80632 69.2742 2.99545 69.0263 3.22237C68.7785 3.44929 68.6022 3.70808 68.4977 3.99874L67.9585 6.76464C68.06 7.22695 68.2328 7.66126 68.477 8.06758C68.7234 8.46238 69.0283 8.80276 69.3917 9.08874C69.769 9.36543 70.1768 9.54642 70.6153 9.63168Z" fill="#ECECEC"/>
<path d="M77.3442 12.3012L82.5228 9.59498L81.7207 4.22662L82.9376 4.82828L83.6584 9.60625L84.7331 10.1376L86.4935 6.58636L87.5998 7.13332L85.8394 10.6845L86.9456 11.2315L91.1398 8.88359L92.3725 9.49306L87.5958 12.1032L88.6123 17.8724L87.3638 17.2551L86.4762 12.1785L85.3699 11.6315L83.5235 15.3564L82.4172 14.8094L84.2637 11.0846L83.189 10.5532L78.5927 12.9185L77.3442 12.3012Z" fill="#ECECEC"/>
<path d="M92.2334 17.8419C92.6164 17.4121 93.0676 17.153 93.587 17.0646C94.1143 16.9674 94.6673 17.0268 95.2462 17.2426C95.8416 17.4575 96.4247 17.8186 96.9955 18.3259C97.3293 18.6226 97.6527 18.9572 97.9659 19.3298C98.279 19.7025 98.5292 20.0663 98.7165 20.4214L99.2323 19.8425C99.7482 19.2637 99.9872 18.651 99.9496 18.0045C99.9119 17.358 99.59 16.7655 98.9841 16.2269C98.6152 15.8991 98.1883 15.6453 97.7031 15.4656C97.2346 15.285 96.6899 15.1545 96.069 15.0741L96.2893 14.1382C97.0107 14.2293 97.653 14.3916 98.2162 14.625C98.7872 14.8496 99.2967 15.1609 99.7446 15.559C100.588 16.3083 101.04 17.1428 101.102 18.0623C101.164 18.9818 100.816 19.8669 100.058 20.7176L97.2323 23.8882C97.1229 24.011 97.0672 24.1265 97.0651 24.2347C97.0709 24.3342 97.127 24.439 97.2334 24.5492L96.6003 25.2597C96.4959 25.1826 96.4046 25.1172 96.3266 25.0635C96.2485 25.0098 96.1958 24.963 96.1685 24.923C95.9567 24.7191 95.8524 24.5006 95.8555 24.2676C95.8586 24.0346 95.9221 23.8396 96.0462 23.6827L96.4785 23.1711C95.8195 23.2925 95.1463 23.2444 94.4591 23.0265C93.7798 22.7999 93.1854 22.4602 92.676 22.0075C92.2369 21.6172 91.9194 21.17 91.7235 20.6657C91.5442 20.1606 91.4942 19.6603 91.5736 19.1651C91.6695 18.6688 91.8895 18.2278 92.2334 17.8419ZM96.3618 22.4543C96.5678 22.4174 96.748 22.3654 96.9023 22.2982C97.0566 22.231 97.1728 22.1535 97.251 22.0658L98.142 21.066C97.945 20.6866 97.7114 20.3218 97.4412 19.9716C97.1797 19.6292 96.8866 19.3136 96.5616 19.0248C95.9205 18.455 95.2891 18.1216 94.6672 18.0247C94.0454 17.9278 93.539 18.0986 93.1482 18.5371C92.9216 18.7915 92.7725 19.0912 92.701 19.4363C92.6374 19.7727 92.6664 20.1286 92.7883 20.504C92.9179 20.8707 93.1539 21.2063 93.4964 21.5107C93.9268 21.8932 94.4006 22.165 94.9179 22.3262C95.4441 22.4952 95.9254 22.5379 96.3618 22.4543Z" fill="#ECECEC"/>
<path d="M99.8816 29.5676L106.371 24.7069L104.403 22.0863L105.264 21.4417L109.919 27.641L109.059 28.2856L107.091 25.665L100.601 30.5257L99.8816 29.5676Z" fill="#ECECEC"/>
<path d="M103.707 35.4299L111.956 31.3895L112.484 32.4647L109.571 33.8917L110.619 36.0263C111.08 36.9645 111.184 37.7897 110.932 38.5019C110.695 39.2194 110.186 39.7695 109.405 40.1521C108.898 40.4002 108.387 40.5197 107.872 40.5105C107.357 40.5013 106.877 40.3506 106.432 40.0584C105.993 39.7768 105.623 39.3302 105.323 38.7188L103.707 35.4299ZM105.09 36.0864L106.108 38.1577C106.32 38.5899 106.575 38.8964 106.873 39.0773C107.182 39.2529 107.505 39.3368 107.842 39.3288C108.189 39.3157 108.526 39.2291 108.853 39.0688C109.17 38.9137 109.431 38.7135 109.638 38.4683C109.861 38.2285 109.984 37.9328 110.008 37.5811C110.047 37.2349 109.951 36.8246 109.718 36.3502L108.716 34.3104L105.09 36.0864Z" fill="#ECECEC"/>
<circle cx="59.5" cy="59.5" r="11.5" fill="#EC39BC"/>
</svg>
