<svg width="45" height="45" viewBox="0 0 45 45" fill="none" xmlns="http://www.w3.org/2000/svg">
<path fill-rule="evenodd" clip-rule="evenodd" d="M1 22.5C1 34.3741 10.6259 44 22.5 44C34.3741 44 44 34.3741 44 22.5C44 10.6259 34.3741 1 22.5 1C10.6259 1 1 10.6259 1 22.5ZM22.5 0C10.0736 0 0 10.0736 0 22.5C0 34.9264 10.0736 45 22.5 45C34.9264 45 45 34.9264 45 22.5C45 10.0736 34.9264 0 22.5 0Z" fill="#EC39BC"/>
<path d="M20.9091 31.8889C21.5539 31.8889 22.0636 32.0994 22.3864 32.5323C22.5662 32.7735 22.7273 33.1366 22.7273 33.4439C22.7273 33.9462 22.5344 34.3929 22.1023 34.6772C21.7956 34.8789 21.3259 34.9989 20.9091 34.9989C20.3313 34.9989 19.9921 35.0365 19.6591 34.6772C19.4133 34.412 19.0909 33.8085 19.0909 33.4439C19.0909 33.2144 19.157 33.1574 19.2614 32.9613C19.5475 32.4236 20.1733 31.8889 20.9091 31.8889Z" fill="#ECECEC"/>
<path d="M20.4515 18.2452C20.7393 18.1091 20.9448 17.9458 21.1709 17.8233C23.2879 16.2309 24.85 14.4888 25.4871 12.4337C25.6104 12.0254 25.8365 11.6579 26.2682 11.3721C27.1519 10.7869 28.4057 10.9094 28.9812 11.6171C29.1662 11.8213 29.2895 12.039 29.3512 12.2704C29.7417 13.2639 29.9883 14.2711 29.9678 15.319C29.9472 16.3398 30.0294 17.3742 29.9883 18.3813C29.9061 19.8512 29.4539 21.2667 28.6112 22.6413C28.0974 23.4443 27.6041 24.2337 26.9464 24.9958C26.5148 25.4994 26.0215 25.9622 25.446 26.3977C24.7883 26.8876 23.9251 27.1054 22.959 27.119C22.1575 27.1326 22.178 27.119 22.2808 27.6226C22.3219 27.8948 22.3835 28.1534 22.3219 28.412C22.3013 28.6706 22.1986 28.9292 21.993 29.1469C21.7053 29.5008 21.2531 29.6913 20.6365 29.6641C20.0199 29.6369 19.6088 29.4191 19.3827 29.0789C19.2389 28.9019 19.1361 28.6706 19.1361 28.48C19.1772 27.609 19.2389 26.7515 19.3005 25.8941C19.3416 25.7308 19.4239 25.5675 19.5266 25.4177C19.8966 24.9006 20.7393 24.8053 21.3559 25.1864C21.5203 25.2953 21.6642 25.4177 21.8286 25.5266C22.0136 25.6763 22.1986 25.826 22.4041 25.9622C22.7535 26.1935 23.1646 26.2207 23.6168 26.1119C24.0689 26.003 24.4594 25.7988 24.7266 25.5402C25.9187 24.5331 26.6792 23.4035 27.0697 22.1649C27.563 20.6678 27.5014 19.1571 27.1931 17.6464C27.1314 17.3606 27.0492 17.0611 26.9875 16.7753C26.9464 16.6937 26.8642 16.5576 26.7409 16.5303C26.5353 16.4759 26.4531 16.612 26.3709 16.7209C26.1859 16.8978 26.0215 17.0884 25.8571 17.2789C24.3978 18.9257 22.6302 20.3956 20.5954 21.743C20.0199 22.1241 19.3416 22.4371 18.5401 22.5596C17.7179 22.6957 16.9163 22.6549 16.1559 22.4235C15.0871 22.0969 14.6966 21.2939 15.2515 20.5998C15.4776 20.2867 15.8476 20.0418 16.2586 19.8512C17.2863 19.3612 18.3962 18.9802 19.5061 18.5991C19.8349 18.4902 20.1638 18.3813 20.4515 18.2452Z" fill="#ECECEC"/>
</svg>
