<svg width="12" height="18" viewBox="0 0 12 18" fill="none" xmlns="http://www.w3.org/2000/svg">
<path fill-rule="evenodd" clip-rule="evenodd" d="M6.75 0.72H5.25C2.76472 0.72 0.75 2.65413 0.75 5.04V12.96C0.75 15.3459 2.76472 17.28 5.25 17.28H6.75C9.23528 17.28 11.25 15.3459 11.25 12.96V5.04C11.25 2.65413 9.23528 0.72 6.75 0.72ZM5.25 0C2.35051 0 0 2.25648 0 5.04V12.96C0 15.7435 2.35051 18 5.25 18H6.75C9.6495 18 12 15.7435 12 12.96V5.04C12 2.25649 9.6495 0 6.75 0H5.25Z" fill="#767676"/>
<path d="M4.5 2.88C4.5 2.08471 5.17157 1.44 6 1.44C6.82843 1.44 7.5 2.08471 7.5 2.88V5.76C7.5 6.55529 6.82843 7.2 6 7.2C5.17157 7.2 4.5 6.55529 4.5 5.76V2.88Z" fill="#767676"/>
<path fill-rule="evenodd" clip-rule="evenodd" d="M6.975 5.76V2.88C6.975 2.36306 6.53848 1.944 6 1.944C5.46152 1.944 5.025 2.36306 5.025 2.88V5.76C5.025 6.27694 5.46152 6.696 6 6.696C6.53848 6.696 6.975 6.27694 6.975 5.76ZM6 1.44C5.17157 1.44 4.5 2.08471 4.5 2.88V5.76C4.5 6.55529 5.17157 7.2 6 7.2C6.82843 7.2 7.5 6.55529 7.5 5.76V2.88C7.5 2.08471 6.82843 1.44 6 1.44Z" fill="#767676"/>
</svg>
