<svg width="475" height="119" viewBox="0 0 475 119" fill="none" xmlns="http://www.w3.org/2000/svg">
<path d="M28.1998 100.68C21.7998 100.68 16.6798 99.4805 12.8398 97.0805C8.99984 94.6005 6.23984 91.1605 4.55984 86.7605C2.95984 82.2805 2.15984 77.1605 2.15984 71.4005V67.9205H20.7598C20.7598 68.1605 20.7598 68.6805 20.7598 69.4805C20.7598 70.2005 20.7598 70.8805 20.7598 71.5205C20.7598 76.2405 21.2798 79.6805 22.3198 81.8405C23.4398 84.0005 25.5198 85.0805 28.5598 85.0805C30.6398 85.0805 32.1998 84.5605 33.2398 83.5205C34.3598 82.4005 35.1198 80.8405 35.5198 78.8405C35.9198 76.7605 36.1198 74.2005 36.1198 71.1605C36.1198 66.2805 35.3198 62.4805 33.7198 59.7605C32.1198 57.0405 28.8398 55.6005 23.8798 55.4405C23.7998 55.3605 23.4398 55.3205 22.7998 55.3205C22.2398 55.3205 21.5998 55.3205 20.8798 55.3205C20.1598 55.3205 19.4798 55.3205 18.8398 55.3205V42.8405C19.3998 42.8405 19.9198 42.8405 20.3998 42.8405C20.9598 42.8405 21.4798 42.8405 21.9598 42.8405C22.5198 42.8405 23.0398 42.8405 23.5198 42.8405C28.4798 42.6805 31.7998 41.3205 33.4798 38.7605C35.2398 36.2005 36.1198 32.4805 36.1198 27.6005C36.1198 23.6805 35.4798 20.6405 34.1998 18.4805C32.9198 16.3205 30.7198 15.2405 27.5998 15.2405C24.6398 15.2405 22.5598 16.3605 21.3598 18.6005C20.2398 20.8405 19.5998 23.8005 19.4398 27.4805C19.4398 27.7205 19.4398 28.3605 19.4398 29.4005C19.4398 30.4405 19.4398 31.4405 19.4398 32.4005H0.839844V27.1205C0.839844 21.4405 1.91984 16.6405 4.07984 12.7205C6.31984 8.72047 9.43984 5.68047 13.4398 3.60047C17.4398 1.52047 22.1598 0.480469 27.5998 0.480469C33.2798 0.480469 38.0798 1.48047 41.9998 3.48047C45.9998 5.48047 49.0398 8.40047 51.1198 12.2405C53.2798 16.0805 54.3598 20.8405 54.3598 26.5205C54.3598 32.2005 53.1598 36.9605 50.7598 40.8005C48.4398 44.6405 45.5198 47.0405 41.9998 48.0005C44.3998 48.8805 46.5198 50.2405 48.3598 52.0805C50.1998 53.8405 51.6398 56.2405 52.6798 59.2805C53.7998 62.3205 54.3598 66.1205 54.3598 70.6805C54.3598 76.6005 53.4798 81.8405 51.7198 86.4005C50.0398 90.8805 47.2798 94.4005 43.4398 96.9605C39.6798 99.4405 34.5998 100.68 28.1998 100.68Z" fill="#CDCDCD"/>
<path d="M55.1605 99.0005L74.0005 1.80047H95.9605L114.68 99.0005H96.3205L92.8405 77.6405H77.4805L73.7605 99.0005H55.1605ZM79.2805 65.5205H90.9205L85.0405 26.2805L79.2805 65.5205Z" fill="#CDCDCD"/>
<path d="M118.771 99.0005V1.80047H162.331V16.5605H138.571V99.0005H118.771Z" fill="#CDCDCD"/>
<path d="M165.617 99.0005V1.80047H196.457C202.297 1.80047 207.057 2.92047 210.737 5.16047C214.417 7.32047 217.137 10.4805 218.897 14.6405C220.737 18.8005 221.657 23.8405 221.657 29.7605C221.657 36.7205 220.457 42.1605 218.057 46.0805C215.737 50.0005 212.537 52.8005 208.457 54.4805C204.377 56.0805 199.697 56.8805 194.417 56.8805H185.417V99.0005H165.617ZM185.417 42.9605H192.377C195.257 42.9605 197.457 42.5205 198.977 41.6405C200.577 40.6805 201.657 39.2005 202.217 37.2005C202.777 35.2005 203.057 32.6405 203.057 29.5205C203.057 26.5605 202.817 24.0805 202.337 22.0805C201.937 20.0805 200.977 18.5205 199.457 17.4005C197.937 16.2805 195.537 15.7205 192.257 15.7205H185.417V42.9605Z" fill="#CDCDCD"/>
<path d="M224.868 118.08V104.16C225.988 104.24 227.028 104.28 227.988 104.28C229.028 104.36 229.948 104.4 230.748 104.4C232.668 104.4 234.348 104.24 235.788 103.92C237.308 103.6 238.588 103.04 239.628 102.24C240.748 101.52 241.588 100.56 242.148 99.3605C242.708 98.1605 242.988 96.7605 242.988 95.1605C242.988 93.9605 242.908 92.8805 242.748 91.9205C242.668 90.9605 242.548 89.9605 242.388 88.9205L221.028 1.80047H239.508L247.788 42.1205L251.988 69.1205L255.228 42.0005L262.308 1.80047H280.908L261.828 89.5205C260.628 94.9605 259.268 99.5205 257.748 103.2C256.228 106.96 254.388 109.92 252.228 112.08C250.068 114.32 247.428 115.92 244.308 116.88C241.268 117.92 237.508 118.44 233.028 118.44C231.908 118.44 230.668 118.4 229.308 118.32C227.948 118.24 226.468 118.16 224.868 118.08Z" fill="#CDCDCD"/>
<path d="M307.575 100.68C301.175 100.68 296.055 99.4805 292.215 97.0805C288.375 94.6005 285.615 91.1605 283.935 86.7605C282.335 82.2805 281.535 77.1605 281.535 71.4005V67.9205H300.135C300.135 68.1605 300.135 68.6805 300.135 69.4805C300.135 70.2005 300.135 70.8805 300.135 71.5205C300.135 76.2405 300.655 79.6805 301.695 81.8405C302.815 84.0005 304.895 85.0805 307.935 85.0805C310.015 85.0805 311.575 84.5605 312.615 83.5205C313.735 82.4005 314.495 80.8405 314.895 78.8405C315.295 76.7605 315.495 74.2005 315.495 71.1605C315.495 66.2805 314.695 62.4805 313.095 59.7605C311.495 57.0405 308.215 55.6005 303.255 55.4405C303.175 55.3605 302.815 55.3205 302.175 55.3205C301.615 55.3205 300.975 55.3205 300.255 55.3205C299.535 55.3205 298.855 55.3205 298.215 55.3205V42.8405C298.775 42.8405 299.295 42.8405 299.775 42.8405C300.335 42.8405 300.855 42.8405 301.335 42.8405C301.895 42.8405 302.415 42.8405 302.895 42.8405C307.855 42.6805 311.175 41.3205 312.855 38.7605C314.615 36.2005 315.495 32.4805 315.495 27.6005C315.495 23.6805 314.855 20.6405 313.575 18.4805C312.295 16.3205 310.095 15.2405 306.975 15.2405C304.015 15.2405 301.935 16.3605 300.735 18.6005C299.615 20.8405 298.975 23.8005 298.815 27.4805C298.815 27.7205 298.815 28.3605 298.815 29.4005C298.815 30.4405 298.815 31.4405 298.815 32.4005H280.215V27.1205C280.215 21.4405 281.295 16.6405 283.455 12.7205C285.695 8.72047 288.815 5.68047 292.815 3.60047C296.815 1.52047 301.535 0.480469 306.975 0.480469C312.655 0.480469 317.455 1.48047 321.375 3.48047C325.375 5.48047 328.415 8.40047 330.495 12.2405C332.655 16.0805 333.735 20.8405 333.735 26.5205C333.735 32.2005 332.535 36.9605 330.135 40.8005C327.815 44.6405 324.895 47.0405 321.375 48.0005C323.775 48.8805 325.895 50.2405 327.735 52.0805C329.575 53.8405 331.015 56.2405 332.055 59.2805C333.175 62.3205 333.735 66.1205 333.735 70.6805C333.735 76.6005 332.855 81.8405 331.095 86.4005C329.415 90.8805 326.655 94.4005 322.815 96.9605C319.055 99.4405 313.975 100.68 307.575 100.68Z" fill="#CDCDCD"/>
<path d="M339.81 99.0005V1.80047H359.61V41.2805H362.37L377.37 1.80047H397.05L378.93 47.5205L398.01 99.0005H377.73L362.37 55.5605H359.61V99.0005H339.81Z" fill="#CDCDCD"/>
<path d="M395.684 99.0005L414.524 1.80047H436.484L455.204 99.0005H436.844L433.364 77.6405H418.004L414.284 99.0005H395.684ZM419.804 65.5205H431.444L425.564 26.2805L419.804 65.5205Z" fill="#CDCDCD"/>
<path d="M457.374 99.0005V81.3605H474.654V99.0005H457.374Z" fill="#CDCDCD"/>
</svg>
